<?xml version="1.0" encoding="UTF-8" standalone="no"?>
<!DOCTYPE svg PUBLIC "-//W3C//DTD SVG 1.1//EN"
 "http://www.w3.org/Graphics/SVG/1.1/DTD/svg11.dtd">
<!-- Generated by graphviz version 2.43.0 (0)
 -->
<!-- Title: network_check_state_machine Pages: 1 -->
<svg width="673pt" height="337pt"
 viewBox="0.00 0.00 673.00 336.65" xmlns="http://www.w3.org/2000/svg" xmlns:xlink="http://www.w3.org/1999/xlink">
<g id="graph0" class="graph" transform="scale(1 1) rotate(0) translate(4 332.65)">
<title>network_check_state_machine</title>
<polygon fill="white" stroke="transparent" points="-4,4 -4,-332.65 669,-332.65 669,4 -4,4"/>
<text text-anchor="middle" x="332.5" y="-7.8" font-family="Helvetica,Arial,sans-serif" font-size="14.00">Network Check State Machine</text>
<!-- n0 -->
<g id="node1" class="node">
<title>n0</title>
<ellipse fill="none" stroke="black" cx="54" cy="-146.65" rx="54" ry="54"/>
<text text-anchor="middle" x="54" y="-142.95" font-family="Helvetica,Arial,sans-serif" font-size="14.00">Begin</text>
</g>
<!-- n1 -->
<g id="node2" class="node">
<title>n1</title>
<ellipse fill="none" stroke="black" cx="205" cy="-190.65" rx="54" ry="54"/>
<text text-anchor="middle" x="205" y="-186.95" font-family="Helvetica,Arial,sans-serif" font-size="14.00">Ping Gateway</text>
</g>
<!-- n0&#45;&gt;n1 -->
<g id="edge1" class="edge">
<title>n0&#45;&gt;n1</title>
<path fill="none" stroke="black" d="M106.28,-161.79C118.17,-165.3 130.93,-169.07 143.19,-172.69"/>
<polygon fill="black" stroke="black" points="142.3,-176.08 152.88,-175.55 144.28,-169.36 142.3,-176.08"/>
<text text-anchor="middle" x="129.5" y="-172.45" font-family="Helvetica,Arial,sans-serif" font-size="14.00">ε</text>
</g>
<!-- n2 -->
<g id="node3" class="node">
<title>n2</title>
<ellipse fill="none" stroke="black" cx="404" cy="-103.65" rx="54" ry="54"/>
<text text-anchor="middle" x="404" y="-99.95" font-family="Helvetica,Arial,sans-serif" font-size="14.00">Ping Internet</text>
</g>
<!-- n0&#45;&gt;n2 -->
<g id="edge2" class="edge">
<title>n0&#45;&gt;n2</title>
<path fill="none" stroke="black" d="M104.03,-126.05C118.86,-120.71 135.37,-115.62 151,-112.65 214.37,-100.59 288.28,-99.43 339.6,-100.62"/>
<polygon fill="black" stroke="black" points="339.78,-104.12 349.87,-100.89 339.97,-97.13 339.78,-104.12"/>
<text text-anchor="middle" x="205" y="-116.45" font-family="Helvetica,Arial,sans-serif" font-size="14.00">ε</text>
</g>
<!-- n3 -->
<g id="node4" class="node">
<title>n3</title>
<ellipse fill="none" stroke="black" cx="607" cy="-195.65" rx="54" ry="54"/>
<ellipse fill="none" stroke="black" cx="607" cy="-195.65" rx="58" ry="58"/>
<text text-anchor="middle" x="607" y="-191.95" font-family="Helvetica,Arial,sans-serif" font-size="14.00">Idle</text>
</g>
<!-- n0&#45;&gt;n3 -->
<g id="edge3" class="edge">
<title>n0&#45;&gt;n3</title>
<path fill="none" stroke="black" d="M74.62,-196.73C90.11,-228.77 115.15,-267.76 151,-286.65 281.4,-355.34 457.83,-279.36 547.87,-230.41"/>
<polygon fill="black" stroke="black" points="549.77,-233.36 556.84,-225.47 546.39,-227.23 549.77,-233.36"/>
<text text-anchor="middle" x="304.5" y="-317.45" font-family="Helvetica,Arial,sans-serif" font-size="14.00">ε</text>
</g>
<!-- n1&#45;&gt;n1 -->
<g id="edge4" class="edge">
<title>n1&#45;&gt;n1</title>
<path fill="none" stroke="black" d="M191.53,-243.07C192.85,-254.42 197.34,-262.65 205,-262.65 210.15,-262.65 213.86,-258.93 216.14,-253.05"/>
<polygon fill="black" stroke="black" points="219.61,-253.6 218.47,-243.07 212.79,-252.02 219.61,-253.6"/>
<text text-anchor="middle" x="205" y="-266.45" font-family="Helvetica,Arial,sans-serif" font-size="14.00">resume()</text>
</g>
<!-- n1&#45;&gt;n2 -->
<g id="edge5" class="edge">
<title>n1&#45;&gt;n2</title>
<path fill="none" stroke="black" d="M254.7,-169.14C281.93,-157.12 316.05,-142.05 344.69,-129.4"/>
<polygon fill="black" stroke="black" points="346.45,-132.45 354.18,-125.21 343.62,-126.04 346.45,-132.45"/>
<text text-anchor="middle" x="304.5" y="-160.45" font-family="Helvetica,Arial,sans-serif" font-size="14.00">resume()</text>
</g>
<!-- n1&#45;&gt;n3 -->
<g id="edge6" class="edge">
<title>n1&#45;&gt;n3</title>
<path fill="none" stroke="black" d="M258.96,-194.75C286.16,-196.66 319.83,-198.7 350,-199.65 414.14,-201.65 487.36,-200.12 539.01,-198.41"/>
<polygon fill="black" stroke="black" points="539.17,-201.9 549.05,-198.06 538.93,-194.91 539.17,-201.9"/>
<text text-anchor="middle" x="404" y="-203.45" font-family="Helvetica,Arial,sans-serif" font-size="14.00">resume()</text>
</g>
<!-- n2&#45;&gt;n2 -->
<g id="edge7" class="edge">
<title>n2&#45;&gt;n2</title>
<path fill="none" stroke="black" d="M385.99,-154.77C387.47,-166.78 393.47,-175.65 404,-175.65 411.4,-175.65 416.57,-171.26 419.5,-164.49"/>
<polygon fill="black" stroke="black" points="422.89,-165.33 422.01,-154.77 416.12,-163.58 422.89,-165.33"/>
<text text-anchor="middle" x="404" y="-179.45" font-family="Helvetica,Arial,sans-serif" font-size="14.00">resume()</text>
</g>
<!-- n2&#45;&gt;n3 -->
<g id="edge8" class="edge">
<title>n2&#45;&gt;n3</title>
<path fill="none" stroke="black" d="M453.4,-125.8C480.76,-138.32 515.24,-154.1 544.49,-167.49"/>
<polygon fill="black" stroke="black" points="543.25,-170.77 553.79,-171.75 546.16,-164.41 543.25,-170.77"/>
<text text-anchor="middle" x="503.5" y="-163.45" font-family="Helvetica,Arial,sans-serif" font-size="14.00">resume()</text>
</g>
<!-- n3&#45;&gt;n0 -->
<g id="edge9" class="edge">
<title>n3&#45;&gt;n0</title>
<path fill="none" stroke="black" d="M575.44,-146.6C549.34,-109.75 508.11,-62.09 458,-40.65 337.75,10.8 186.37,-63.28 107.79,-111.25"/>
<polygon fill="black" stroke="black" points="105.69,-108.43 99.03,-116.67 109.38,-114.38 105.69,-108.43"/>
<text text-anchor="middle" x="304.5" y="-39.45" font-family="Helvetica,Arial,sans-serif" font-size="14.00">begin()</text>
</g>
</g>
</svg>
